<svg width="588" height="641" viewBox="0 0 588 641" fill="none" xmlns="http://www.w3.org/2000/svg">
<path d="M410.491 225.003L422.529 217.751C437.659 208.635 457.274 212.925 467.217 227.525V227.525C470.979 233.049 472.991 239.578 472.991 246.261L472.991 447.848C472.991 456.9 471.625 465.9 468.941 474.544L465.675 485.058C460.065 503.12 448.331 518.661 432.495 529.003V529.003L413.831 538.941C400.81 545.874 386.285 549.5 371.533 549.5L344.5 549.5L322.477 549.5C308.357 549.5 294.435 546.178 281.837 539.802L273.512 535.589C264.89 531.225 257.028 525.502 250.226 518.638L104.024 371.106C98.5595 365.593 95.4926 358.145 95.4896 350.382V350.382C95.4852 338.877 102.179 328.422 112.631 323.612L113.776 323.084C122.156 319.227 131.808 319.247 140.172 323.139L221.934 361.18C223.26 361.797 224.778 360.829 224.778 359.367L224.774 97.8535C224.774 91.1819 227.05 84.7098 231.225 79.5067V79.5067C242.431 65.5449 263.424 64.8013 275.589 77.9353L276.407 78.8183C281.604 84.4288 284.491 91.7942 284.491 99.4415L284.491 201.503M410.491 225.003L410.491 296.503M410.491 225.003L407.231 215.215C405.761 210.801 403.282 206.79 399.992 203.501L399.524 203.033C391.835 195.347 380.48 192.632 370.146 196.011V196.011C364.207 197.953 359.058 201.77 355.473 206.889L350.491 214.003M350.491 214.003L350.491 296.503M350.491 214.003L348.1 204.19C346.412 197.263 342.468 191.094 336.889 186.654L336.602 186.426C327.068 178.839 314.017 177.42 303.075 182.78V182.78C298.746 184.9 294.961 187.984 292.01 191.795L284.491 201.503M284.491 201.503L284.491 296.503" stroke="black" stroke-width="20"/>
</svg>
