<svg width="500" height="411" viewBox="0 0 500 411" fill="none" xmlns="http://www.w3.org/2000/svg">
<g clip-path="url(#clip0)">
<path d="M67.0113 94.9219C53.6355 94.9273 47.8896 114.295 34.8 117.047C28.9538 118.276 22.989 115.829 17.0159 115.723C11.0428 115.617 3.89808 119.955 5.16025 125.794L119.035 124.077C107.265 122.855 96.2549 117.683 87.7994 109.404C81.6275 103.266 75.7154 94.9183 67.0113 94.9219Z" fill="#F0F0F0"/>
<path d="M328.199 298.122C311.56 298.12 295.46 292.218 282.762 281.464C270.065 270.71 261.592 255.801 258.851 239.389L258.829 239.253L258.917 239.148C263.415 233.762 267.05 227.711 269.695 221.211C266.548 225.244 262.747 228.721 258.45 231.496L258.009 231.789L257.983 231.26C257.927 230.096 257.899 228.939 257.899 227.821C257.86 215.867 260.887 204.103 266.691 193.652C272.496 183.202 280.883 174.414 291.052 168.13C273.256 149.663 263.336 125.001 263.387 99.3546C263.387 44.5703 307.967 -2.28299e-05 362.762 -2.28299e-05C383.654 -0.0295632 404.022 6.53646 420.963 18.7622C437.904 30.9879 450.554 48.2493 457.109 68.0862L457.197 68.3533L456.937 68.4588C450.171 71.1981 443.944 72.5142 437.988 72.45C444.776 74.372 451.822 75.2239 458.872 74.9749L459.114 74.9667L459.173 75.2022C461.143 83.1019 462.138 91.213 462.136 99.3546C462.136 99.6484 462.135 99.942 462.132 100.235C462.113 106.566 463.429 112.829 465.992 118.617C468.556 124.406 472.311 129.589 477.012 133.828C484.522 140.661 490.463 149.04 494.425 158.388C498.388 167.736 500.279 177.831 499.967 187.98C499.655 198.128 497.149 208.088 492.62 217.176C488.091 226.263 481.647 234.261 473.732 240.62L473.588 240.736L473.42 240.66C463.026 235.944 455.788 230.679 450.858 224.216C454.191 232.355 459.051 239.78 465.176 246.091L465.443 246.366L465.112 246.559C454.606 252.679 442.693 255.972 430.535 256.116C418.377 256.261 406.39 253.253 395.741 247.384C391.464 261.997 382.575 274.833 370.402 283.978C358.229 293.122 343.424 298.084 328.199 298.122V298.122Z" fill="#1B98E0"/>
<path d="M303.154 410.101C302.846 410.101 302.55 409.99 302.318 409.788C302.086 409.587 301.934 409.308 301.891 409.004C301.837 408.623 296.521 370.288 301.295 319.339C305.704 272.287 319.861 204.516 362.272 148.856C362.374 148.722 362.501 148.61 362.646 148.526C362.791 148.441 362.951 148.386 363.118 148.364C363.284 148.341 363.453 148.352 363.615 148.394C363.777 148.437 363.93 148.512 364.063 148.613C364.197 148.715 364.309 148.842 364.393 148.987C364.478 149.132 364.533 149.293 364.555 149.459C364.577 149.625 364.567 149.794 364.524 149.957C364.481 150.119 364.406 150.271 364.304 150.404C322.26 205.584 308.216 272.858 303.838 319.578C299.092 370.23 304.366 408.265 304.42 408.644C304.446 408.825 304.432 409.01 304.38 409.185C304.328 409.361 304.239 409.523 304.119 409.661C303.999 409.799 303.851 409.91 303.684 409.986C303.518 410.062 303.337 410.101 303.154 410.101L303.154 410.101Z" fill="#3F3D56"/>
<path d="M324.355 222.454C324.085 222.454 323.822 222.369 323.604 222.21C323.385 222.052 323.223 221.828 323.139 221.572C323.056 221.315 323.056 221.039 323.139 220.782C323.222 220.525 323.385 220.302 323.603 220.143C323.757 220.031 339.272 208.852 362.467 200.359C383.909 192.509 416.515 185.392 450.082 196.076C450.242 196.126 450.39 196.208 450.519 196.316C450.647 196.424 450.753 196.557 450.83 196.706C450.907 196.855 450.954 197.018 450.969 197.185C450.983 197.352 450.964 197.521 450.913 197.68C450.862 197.84 450.78 197.989 450.672 198.117C450.564 198.245 450.431 198.351 450.282 198.428C450.133 198.505 449.97 198.552 449.803 198.566C449.636 198.58 449.467 198.561 449.307 198.51C416.428 188.046 384.413 195.045 363.345 202.758C340.482 211.13 325.256 222.1 325.105 222.21C324.887 222.368 324.624 222.454 324.355 222.454Z" fill="#3F3D56"/>
<path d="M66.7051 375.292L71.0209 376.643L99.982 284.098C98.7978 283.797 97.543 283.96 96.4755 284.555C95.408 285.15 94.6089 286.131 94.2425 287.297L66.7051 375.292Z" fill="#3F3D56"/>
<path d="M161.888 254.573H142.796V198.454H161.888C165.541 198.458 169.043 199.911 171.626 202.494C174.209 205.077 175.661 208.579 175.665 212.232V240.796C175.661 244.449 174.209 247.951 171.626 250.533C169.043 253.116 165.541 254.569 161.888 254.573V254.573Z" fill="#2F2E41"/>
<path d="M159.231 224.509C158.593 224.509 157.982 224.255 157.531 223.804C157.08 223.353 156.826 222.742 156.826 222.104V201.26H161.636V222.104C161.635 222.742 161.381 223.353 160.931 223.804C160.48 224.255 159.868 224.509 159.231 224.509V224.509Z" fill="#3F3D56"/>
<path d="M165.013 250.164H151.043C150.238 250.163 149.466 249.843 148.897 249.273C148.328 248.704 148.008 247.932 148.007 247.127V238.77C148.008 237.965 148.328 237.193 148.897 236.624C149.466 236.054 150.238 235.734 151.043 235.733H165.013C165.818 235.734 166.59 236.054 167.159 236.624C167.728 237.193 168.048 237.965 168.049 238.77V247.127C168.048 247.932 167.728 248.704 167.159 249.273C166.59 249.843 165.818 250.163 165.013 250.164V250.164Z" fill="#3F3D56"/>
<path d="M124.28 192.615C123.952 192.615 123.634 192.502 123.38 192.294C123.222 192.166 123.093 192.006 123 191.826C122.908 191.645 122.853 191.448 122.84 191.245C122.39 184.053 123.639 176.857 126.487 170.237C128.417 165.769 130.637 162.89 133.474 161.177C137.258 158.891 142.451 158.708 147.721 160.676C150.732 161.8 152.904 163.27 154.36 165.168C156.303 167.702 156.913 170.952 157.282 174.087C157.839 178.831 157.97 183.614 157.673 188.381C157.659 188.627 157.581 188.865 157.445 189.071C157.31 189.277 157.122 189.444 156.901 189.553C156.661 189.67 156.396 189.722 156.131 189.705C155.865 189.687 155.609 189.601 155.387 189.454C155.298 189.395 155.206 189.341 155.111 189.292C154.631 189.051 154.1 188.929 153.563 188.936C153.026 188.943 152.499 189.078 152.025 189.331C151.677 189.537 151.348 189.773 151.042 190.036L149.148 191.57C148.914 191.756 148.629 191.865 148.331 191.884C148.033 191.903 147.736 191.83 147.481 191.676C146.107 190.895 144.571 190.441 142.993 190.351C140.899 190.273 138.802 190.425 136.74 190.804L124.494 192.599C124.424 192.61 124.352 192.615 124.28 192.615V192.615Z" fill="#2F2E41"/>
<path d="M122.646 396.853H116.106L112.995 371.63H122.647L122.646 396.853Z" fill="#FFB6B6"/>
<path d="M126.164 409.27H121.523L120.695 404.889L118.574 409.27H106.266C105.677 409.27 105.102 409.082 104.627 408.732C104.152 408.383 103.801 407.89 103.625 407.327C103.45 406.764 103.459 406.159 103.651 405.602C103.843 405.044 104.209 404.562 104.694 404.227L114.523 397.44V393.01L124.86 393.628L126.164 409.27Z" fill="#2F2E41"/>
<path d="M197.904 391.259L191.876 393.793L179.231 371.748L188.128 368.007L197.904 391.259Z" fill="#FFB6B6"/>
<path d="M205.96 401.342L201.682 403.14L199.221 399.423L198.963 404.284L187.618 409.054C187.074 409.283 186.472 409.332 185.898 409.193C185.325 409.055 184.81 408.738 184.43 408.286C184.05 407.835 183.824 407.275 183.785 406.686C183.746 406.097 183.897 405.512 184.214 405.014L190.643 394.948L188.926 390.865L198.695 387.427L205.96 401.342Z" fill="#2F2E41"/>
<path d="M119.59 225.066L117.716 250.172L105.287 287.665L100.296 284.764L107.067 246.633L109.367 224.636L119.59 225.066Z" fill="#FFB6B6"/>
<path d="M102.388 293.133C105.277 293.133 107.619 290.791 107.619 287.903C107.619 285.014 105.277 282.672 102.388 282.672C99.4993 282.672 97.1573 285.014 97.1573 287.903C97.1573 290.791 99.4993 293.133 102.388 293.133Z" fill="#FFB6B6"/>
<path d="M151.481 253.981V260.907C151.481 260.907 162.201 279.796 157.836 287.903L173.929 331.925C173.929 331.925 195.753 353.749 193.883 369.338L195.13 374.326L180.788 380.561L177.67 376.197L153.352 334.419L132.775 296.383L129.034 341.278C129.034 341.278 131.528 376.197 124.669 379.938L124.045 385.55H109.49V380.215C109.49 380.215 104.092 361.231 107.21 346.89L105.962 286.406C105.962 286.406 111.574 260.84 118.433 256.476L120.928 250.24L151.481 253.981Z" fill="#2F2E41"/>
<path d="M162.934 205.978L149.342 199.614L145.419 192.777L132.227 193.525L128.235 200.042L116.493 202.421L118.218 244.862C117.449 246.193 117.175 247.753 117.445 249.266C117.856 251.926 119.949 249.833 117.856 251.926C115.764 254.018 114.187 252.967 115.237 254.8C116.287 256.633 113.704 259.492 113.704 259.492C113.704 259.492 147.108 276.506 156.544 254.8C156.544 254.8 158.405 248.451 155.262 235.15C152.119 221.848 162.934 205.978 162.934 205.978Z" fill="#E4E4E4"/>
<path d="M120.352 205.124L116.492 202.421C116.492 202.421 111.155 204.612 110.975 209.045C110.795 213.479 107.727 226.746 107.727 226.746L119.912 233.296L120.352 205.124Z" fill="#E4E4E4"/>
<path d="M166.144 227.159L164.271 252.264L143.473 283.481L138.482 280.579L153.623 248.726L155.922 226.728L166.144 227.159Z" fill="#FFB6B6"/>
<path d="M156.577 207.397L162.934 205.978C162.934 205.978 166.765 207.202 167.288 212.956C167.811 218.71 168.25 228.724 168.25 228.724L154.908 238.535L151.596 224.464L156.577 207.397Z" fill="#E4E4E4"/>
<path d="M140.051 288.949C142.94 288.949 145.282 286.607 145.282 283.718C145.282 280.829 142.94 278.487 140.051 278.487C137.162 278.487 134.82 280.829 134.82 283.718C134.82 286.607 137.162 288.949 140.051 288.949Z" fill="#FFB6B6"/>
<path d="M137.63 190.537C144.362 190.537 149.818 185.08 149.818 178.349C149.818 171.617 144.362 166.161 137.63 166.161C130.899 166.161 125.442 171.617 125.442 178.349C125.442 185.08 130.899 190.537 137.63 190.537Z" fill="#FFB7B7"/>
<path d="M127.703 176.511H127.703C126.15 176.51 124.595 176.508 123.039 176.505C122.853 176.504 122.67 176.466 122.499 176.393C122.329 176.321 122.174 176.215 122.045 176.081C121.918 175.951 121.819 175.796 121.754 175.626C121.688 175.457 121.658 175.275 121.664 175.093C121.779 172.511 122.517 169.994 123.815 167.758C125.114 165.523 126.933 163.634 129.12 162.254V162.254C131.418 160.853 134.042 160.071 136.733 159.986C139.424 159.901 142.091 160.515 144.474 161.769C146.856 163.023 148.873 164.873 150.327 167.14C151.781 169.406 152.622 172.011 152.768 174.699C152.778 174.881 152.752 175.062 152.692 175.234C152.631 175.405 152.537 175.563 152.415 175.698C152.292 175.833 152.145 175.942 151.98 176.019C151.815 176.096 151.637 176.139 151.455 176.147C146.061 176.375 140.078 176.486 132.054 176.507H132.05C131.777 176.507 131.51 176.427 131.284 176.274C131.057 176.122 130.881 175.906 130.779 175.653L130.649 175.337C130.581 175.17 130.462 175.03 130.31 174.935C130.157 174.841 129.978 174.797 129.799 174.811C129.62 174.825 129.449 174.895 129.312 175.011C129.176 175.128 129.079 175.284 129.037 175.459C128.966 175.759 128.795 176.026 128.553 176.217C128.311 176.408 128.012 176.512 127.703 176.511V176.511Z" fill="#2F2E41"/>
<path d="M154.985 237.977C151.709 234.895 150.301 230.422 150.278 226.006C150.253 220.961 152.079 216.17 154.44 211.784C155.868 209.131 157.495 206.593 159.124 204.061C159.671 203.209 158.313 202.421 157.768 203.268C152.26 211.837 146.193 221.986 149.746 232.516C150.561 235.013 151.979 237.27 153.875 239.087C154.61 239.779 155.722 238.671 154.985 237.977H154.985Z" fill="#3F3D56"/>
<path d="M66.7887 331.619C64.0896 330.768 61.2051 330.696 58.4668 331.41C58.4603 331.414 58.4557 331.412 58.4495 331.416C56.3272 331.967 54.3488 332.969 52.649 334.355C52.5503 334.434 52.4565 334.516 52.3625 334.597C50.2088 336.444 48.6188 338.86 47.7745 341.569L36.1293 378.781C35.263 381.536 35.2038 384.481 35.9587 387.268C36.0043 387.424 36.0501 387.581 36.0959 387.737C36.6611 389.584 37.5709 391.307 38.7771 392.815C38.7846 392.822 38.7907 392.831 38.7949 392.841C40.6778 395.179 43.2135 396.903 46.0794 397.796L68.0422 404.669L88.7515 338.492L66.7887 331.619Z" fill="#1B98E0"/>
<path d="M101.421 284.548L73.1349 374.935C73.0459 375.219 73.0137 375.517 73.04 375.813C73.0664 376.109 73.1508 376.397 73.2884 376.66C73.426 376.923 73.6142 377.157 73.8422 377.347C74.0701 377.538 74.3334 377.682 74.6169 377.77C74.9005 377.859 75.1987 377.891 75.4946 377.865C75.7905 377.838 76.0783 377.753 76.3415 377.616C76.6046 377.478 76.838 377.289 77.0284 377.061C77.2187 376.833 77.3622 376.57 77.4507 376.286L104.313 290.449C104.676 289.282 104.579 288.02 104.041 286.923C103.503 285.826 102.566 284.976 101.421 284.548Z" fill="#3F3D56"/>
<path d="M66.1431 409.627C68.3796 409.627 70.1927 407.814 70.1927 405.577C70.1927 403.341 68.3796 401.527 66.1431 401.527C63.9066 401.527 62.0935 403.341 62.0935 405.577C62.0935 407.814 63.9066 409.627 66.1431 409.627Z" fill="#3F3D56"/>
<path d="M39.7685 401.373C42.005 401.373 43.8181 399.56 43.8181 397.323C43.8181 395.087 42.005 393.274 39.7685 393.274C37.5319 393.274 35.7189 395.087 35.7189 397.323C35.7189 399.56 37.5319 401.373 39.7685 401.373Z" fill="#3F3D56"/>
<path d="M58.4668 331.41C54.2726 344.561 43.2855 378.946 38.795 392.841C38.7907 392.831 38.7846 392.822 38.7771 392.815C37.5709 391.306 36.6612 389.584 36.0959 387.737C36.0503 387.581 36.0045 387.424 35.9587 387.268C40.7734 372.169 48.8371 346.703 52.3625 334.597C52.4566 334.515 52.5504 334.434 52.6491 334.355C54.3488 332.969 56.3273 331.967 58.4495 331.416C58.4557 331.412 58.4604 331.414 58.4668 331.41Z" fill="#3F3D56"/>
<path d="M389.381 409.891H0.71495C0.525694 409.891 0.344382 409.815 0.210751 409.681C0.0771205 409.547 0.0020752 409.365 0.0020752 409.176C0.0020752 408.987 0.0771205 408.805 0.210751 408.671C0.344382 408.537 0.525694 408.462 0.71495 408.461H389.381C389.57 408.462 389.751 408.537 389.885 408.671C390.019 408.805 390.094 408.987 390.094 409.176C390.094 409.365 390.019 409.547 389.885 409.681C389.751 409.815 389.57 409.891 389.381 409.891V409.891Z" fill="#CACACA"/>
<path d="M188.674 34.9485C182.503 28.8104 176.59 20.4627 167.886 20.4663C154.51 20.4718 148.765 39.8392 135.675 42.5914C129.829 43.8206 123.864 41.3736 117.891 41.2677C111.918 41.1619 104.773 45.4989 106.035 51.3381L219.91 49.6214C208.14 48.3992 197.13 43.2274 188.674 34.9485V34.9485Z" fill="#F0F0F0"/>
<path d="M442.29 9.33716C428.915 9.34262 423.169 28.71 410.079 31.4623C404.233 32.6915 398.268 30.2444 392.295 30.1386C386.322 30.0327 379.177 34.3698 380.439 40.209L494.314 38.4922C482.544 37.2701 471.534 32.0982 463.079 23.8193C456.907 17.6813 450.995 9.33357 442.29 9.33716Z" fill="#F0F0F0"/>
</g>
<defs>
<clipPath id="clip0">
<rect width="500" height="410.101" fill="white"/>
</clipPath>
</defs>
</svg>
